# xmcd
#
# Track frame offsets:
#	150
#	10097
#	28769
#	47580
#	66650
#	85153
#	107040
#	122197
#
# Disc length: 1780 seconds
#
# Revision: 0
# Processed by: cddbd v1.5.1PL0 Copyright (c) Steve Scherf et al.
# Submitted via: dBpowerAMP V4.0
#
DISCID=6706f208
DTITLE=Michael Bright - Fire In My Bones
DYEAR=1900
DGENRE=
TTITLE0=Discover The Joy
TTITLE1=Victory In Jesus
TTITLE2=Sing A New song
TTITLE3=Fire In My Bones
TTITLE4=I Can Only Imagine
TTITLE5=I Believe He Died For Me
TTITLE6=I Go To The Rock
TTITLE7=Angels Camping All Around
EXTD=
EXTT0=
EXTT1=
EXTT2=
EXTT3=
EXTT4=
EXTT5=
EXTT6=
EXTT7=
PLAYORDER=
